<?xml version="1.0" encoding="UTF-8"?>
<svg width="25px" height="20px" viewBox="0 0 25 20" version="1.1" xmlns="http://www.w3.org/2000/svg" xmlns:xlink="http://www.w3.org/1999/xlink">
    <!-- Generator: Sketch 60.1 (88133) - https://sketch.com -->
    <title>ui/icon/search</title>
    <desc>Created with Sketch.</desc>
    <g id="ui/icon/search" stroke="none" stroke-width="1" fill="none" fill-rule="evenodd">
        <g id="Group-22" transform="translate(-2.000000, -4.000000)" fill-rule="nonzero">
            <g id="Group-6" transform="translate(14.902969, 14.636003) rotate(-47.000000) translate(-14.902969, -14.636003) translate(5.902969, 3.636003)">
                <path d="M9.5,15 C9.77614237,15 10,15.2238576 10,15.5 L10,21.5 C10,21.7761424 9.77614237,22 9.5,22 C9.22385763,22 9,21.7761424 9,21.5 L9,15.5 C9,15.2238576 9.22385763,15 9.5,15 Z" id="Rectangle" fill="#000000"></path>
                <path d="M9.5,12 C7.56700338,12 6,13.5670034 6,15.5 L6,21.5 C6,23.4329966 7.56700338,25 9.5,25 C11.4329966,25 13,23.4329966 13,21.5 L13,15.5 C13,13.5670034 11.4329966,12 9.5,12 Z M9.5,15 C9.77614237,15 10,15.2238576 10,15.5 L10,21.5 C10,21.7761424 9.77614237,22 9.5,22 C9.22385763,22 9,21.7761424 9,21.5 L9,15.5 C9,15.2238576 9.22385763,15 9.5,15 Z" id="Rectangle" fill="#F7F7F7"></path>
                <path d="M9,3 C12.3137085,3 15,5.6862915 15,9 C15,12.3137085 12.3137085,15 9,15 C5.6862915,15 3,12.3137085 3,9 C3,5.6862915 5.6862915,3 9,3 Z M9,4 C6.23857625,4 4,6.23857625 4,9 C4,11.7614237 6.23857625,14 9,14 C11.7614237,14 14,11.7614237 14,9 C14,6.23857625 11.7614237,4 9,4 Z" id="Oval" fill="#000000"></path>
                <path d="M9,2.27373675e-13 C4.02943725,2.27373675e-13 -2.27373675e-13,4.02943725 -2.27373675e-13,9 C-2.27373675e-13,13.9705627 4.02943725,18 9,18 C13.9705627,18 18,13.9705627 18,9 C18,4.02943725 13.9705627,2.27373675e-13 9,2.27373675e-13 Z M9,3 C12.3137085,3 15,5.6862915 15,9 C15,12.3137085 12.3137085,15 9,15 C5.6862915,15 3,12.3137085 3,9 C3,5.6862915 5.6862915,3 9,3 Z" id="Oval" fill="#F7F7F7"></path>
                <path d="M9.51636647,14.2324958 C9.79250885,14.2324958 10.0163665,14.4563535 10.0163665,14.7324958 L10.0163665,20.7324958 C10.0163665,21.0086382 9.79250885,21.2324958 9.51636647,21.2324958 C9.2402241,21.2324958 9.01636647,21.0086382 9.01636647,20.7324958 L9.01636647,14.7324958 C9.01636647,14.4563535 9.2402241,14.2324958 9.51636647,14.2324958 Z" id="Rectangle" fill="#000000"></path>
            </g>
        </g>
    </g>
</svg>