<?xml version="1.0" encoding="UTF-8"?>
<svg width="60px" height="60px" viewBox="0 0 60 60" version="1.1" xmlns="http://www.w3.org/2000/svg" xmlns:xlink="http://www.w3.org/1999/xlink">
    <!-- Generator: Sketch 60.1 (88133) - https://sketch.com -->
    <title>nav/icon/cert</title>
    <desc>Created with Sketch.</desc>
    <g id="nav/icon/cert" stroke="none" stroke-width="1" fill="none" fill-rule="evenodd">
        <g id="Group-11" transform="translate(7.000000, 1.000000)">
            <g id="cert">
                <g id="Group-5" transform="translate(23.000103, 29.500000) rotate(-180.000000) translate(-23.000103, -29.500000) translate(0.000103, 0.000000)" stroke="#545B64" stroke-width="2">
                    <path d="M2.94429472,4.56208227 C4.41675082,4.33941091 5.79092313,5.35256162 6.01359449,6.82501772 C6.03022686,6.93500236 6.04003438,7.04588973 6.04293365,7.15668189 L6.61882375,28.8615259 L-1.08088848,29.498336 L0.520375486,7.18400466 C0.616058905,5.85084655 1.62273412,4.76193454 2.94429472,4.56208227 Z" id="Rectangle"></path>
                    <path d="M6.00010297,4.59441154 L40.1230986,0.985512442 C42.8692068,0.695079931 45.3308094,2.68579838 45.6212419,5.43190655 C45.6383889,5.59403519 45.6475959,5.75690547 45.64883,5.91993366 L46.000103,52.3250047 L46.000103,52.3250047 L7.56278102,58.4055176 L6.00010297,4.59441154 Z" id="Rectangle" fill="#F7F7F7"></path>
                </g>
                <path d="M7.64001034,13.2960336 L31.6400103,10.8563707 C32.7265395,10.7459221 33.7685183,11.6164137 33.9673351,12.800668 C33.9890671,12.9301146 34,13.0603885 34,13.189894 L34,47.4427678 C34,48.4786285 33.3099389,49.3012439 32.3599897,49.3978087 L8.35998966,51.8374716 C7.27346048,51.9479202 6.23148169,51.0774286 6.03266489,49.8931743 C6.01093294,49.7637277 6,49.6334538 6,49.5039483 L6,15.2510745 C6,14.2152138 6.69006113,13.3925984 7.64001034,13.2960336 Z" id="Rectangle" fill="#FFFFFF"></path>
                <g id="Group-8" transform="translate(9.000000, 17.000000)" stroke="#EC912D" stroke-linecap="round" stroke-width="2">
                    <line x1="0.465061486" y1="3.42724325" x2="11.6280887" y2="1.99211072" id="Line-2"></line>
                    <line x1="0.887228967" y1="11.4486056" x2="19.4625981" y2="9.38854974" id="Line-2"></line>
                    <line x1="0.887228967" y1="19.4486056" x2="19.4625981" y2="17.3885497" id="Line-2"></line>
                    <line x1="0.887228967" y1="27.4486056" x2="19.4625981" y2="25.3885497" id="Line-2"></line>
                </g>
            </g>
        </g>
    </g>
</svg>