<svg width="60px" height="60px" viewBox="0 0 60 60" version="1.1" xmlns="http://www.w3.org/2000/svg" xmlns:xlink="http://www.w3.org/1999/xlink">
    <g id="nav/icon/library" stroke="none" stroke-width="1" fill="none" fill-rule="evenodd">
        <g id="Group-10" transform="translate(11.000000, 0.000000)">
            <g id="Group-9">
                <path d="M1,15.2752219 L1,57.311045 L25.7727273,43.7247781 L25.7727273,1.68895501 L1,15.2752219 Z" id="Rectangle" stroke="#545B64" stroke-width="2" fill="#F7F7F7"></path>
                <path d="M1,15.3900103 L1,57.5853135 L33.3388228,46.1403446 L33.3388228,3.94504128 L1,15.3900103 Z" id="Rectangle" stroke="#545B64" stroke-width="2" fill="#F7F7F7"></path>
                <path d="M1,15.9239893 L1,57.806226 L37,51.3965235 L37,9.51428686 L1,15.9239893 Z" id="Rectangle" stroke="#545B64" stroke-width="2" fill="#F7F7F7"></path>
                <path d="M9.41863664,22.6534605 L27.8731821,19.3337268 C28.9603024,19.138168 30.0001193,19.8609213 30.1956781,20.9480416 C30.2166994,21.0649 30.2272727,21.1833982 30.2272727,21.3021322 L30.2272727,43.4550572 C30.2272727,44.4230402 29.5340548,45.2520858 28.5813634,45.4234626 L10.1268179,48.7431963 C9.03969762,48.9387551 7.99988073,48.2160018 7.80432187,47.1288815 C7.78330056,47.0120231 7.77272727,46.8935249 7.77272727,46.7747909 L7.77272727,24.6218659 C7.77272727,23.6538829 8.46594519,22.8248373 9.41863664,22.6534605 Z" id="Rectangle" fill="#FFFFFF"></path>
                <path d="M12.1797443,26.2231154 C11.7065863,26.311635 11.3636364,26.7246948 11.3636364,27.2060618 L11.3636364,44.1103668 C11.3636364,44.172059 11.3693452,44.2336188 11.3806899,44.294259 C11.4822507,44.8371253 12.0046621,45.1948741 12.5475285,45.0933133 L25.8202557,42.6102179 C26.2934137,42.5216983 26.6363636,42.1086385 26.6363636,41.6272715 L26.6363636,24.7229665 C26.6363636,24.6612743 26.6306548,24.5997145 26.6193101,24.5390744 C26.5177493,23.9962081 25.9953379,23.6384592 25.4524715,23.74002 L12.1797443,26.2231154 Z" id="Rectangle" stroke="#EC912D" stroke-width="2" fill="#F7F7F7"></path>
            </g>
        </g>
    </g>
</svg>