<?xml version="1.0" encoding="UTF-8"?>
<svg width="60px" height="60px" viewBox="0 0 60 60" version="1.1" xmlns="http://www.w3.org/2000/svg" xmlns:xlink="http://www.w3.org/1999/xlink">
    <!-- Generator: Sketch 60.1 (88133) - https://sketch.com -->
    <title>nav/icon/training</title>
    <desc>Created with Sketch.</desc>
    <g id="nav/icon/training" stroke="none" stroke-width="1" fill="none" fill-rule="evenodd">
        <g id="social" transform="translate(5.000000, 3.000000)">
            <path d="M22.7958388,0.160482592 C32.4285408,0.253950825 40.6724117,7.09695843 42.5378432,16.5477705 L45.8896583,33.5290289 L45.8896583,33.5290289 L48.7438047,47.7436983 C49.1786951,49.9096082 47.7754267,52.0179734 45.6095168,52.4528638 C45.017509,52.5717324 44.4062717,52.5550293 43.8216391,52.4040071 L12.9854287,44.4384038 C5.4734801,42.4979188 0.436215389,35.4477142 1.0348889,27.7123123 L1.08318362,27.088301 L1.08318362,27.088301 L3.15389176,16.2462349 C4.95032715,6.84023947 13.2202815,0.0675688471 22.7958388,0.160482592 Z" id="Rectangle" stroke="#545B64" stroke-width="2" fill="#F7F7F7"></path>
            <path d="M23.3248375,6.12481979 C30.6387665,6.19744855 36.8899555,11.4105745 38.2751452,18.592502 L40.8761403,32.0781336 L40.8761403,32.0781336 L42.7697461,41.7295718 C43.1950688,43.8973808 41.7825046,45.9995293 39.6146956,46.424852 C39.0205245,46.541428 38.407641,46.5215908 37.8222521,46.366836 L16.554065,40.744328 C10.4379339,39.1274531 6.34615989,33.3769079 6.82321955,27.0686786 L6.82321955,27.0686786 L6.82321955,27.0686786 L8.44901882,18.3569964 C9.78276376,11.210258 16.055069,6.05262956 23.3248375,6.12481979 Z" id="Rectangle" fill="#FFFFFF"></path>
            <path d="M11.9703882,16.9218272 C16.0259033,17.8884669 19.6775235,18.3717867 22.9252486,18.3717867 C23.7441879,18.3717867 25.5037649,16.5811911 28.2039795,13 L28.8425049,17.6940218 L35.5587694,16.7021411 C36.1051281,16.621453 36.6134501,16.9989536 36.6941382,17.5453124 C36.6963861,17.5605334 36.6982824,17.5758043 36.6998256,17.5911128 L38.2973938,33.4389556 C39.1804634,42.198987 32.7949242,50.0162649 24.0348928,50.8993345 C23.7029457,50.9327969 23.37003,50.9558307 23.0366375,50.9684018 C22.7573026,50.9789345 22.4779677,50.9894673 22.1986328,51 C21.891319,50.9886652 21.5840052,50.9773305 21.2766914,50.9659957 C12.6575261,50.6480917 5.92802424,43.4031656 6.24592822,34.7840004 C6.26540813,34.2558516 6.31168578,33.7290321 6.38458252,33.2055756 L8.30348973,19.4262971 C8.53201097,17.7852733 10.0475824,16.6402212 11.688605,16.8687506 C11.783325,16.8819414 11.8773601,16.8996538 11.9703882,16.9218272 Z" id="Rectangle" stroke="#545B64" stroke-width="2" fill="#F7F7F7"></path>
            <path d="M23.0856761,29 L20.6505961,36.1024047 C20.4079698,36.8100733 20.7849612,37.5804395 21.4926298,37.8230658 C21.6566981,37.8793171 21.8300427,37.9035357 22.0032457,37.894406 L22.0032457,37.894406 L22.0032457,37.894406 L23.3542074,37.894406 L24,37.894406" id="Path-2" stroke="#EC912D" stroke-width="2" fill="#F7F7F7" stroke-linecap="round" stroke-linejoin="bevel"></path>
            <path d="M19,42 C21.6074369,43.3333333 23.9407702,43.3333333 26,42" id="Path-3" stroke="#EC912D" stroke-width="2" fill="#D8D8D8" stroke-linecap="round"></path>
            <path d="M28,26 C29.8624549,27.3333333 31.5291216,27.3333333 33,26" id="Path-3" stroke="#EC912D" stroke-width="2" fill="#D8D8D8" stroke-linecap="round" transform="translate(30.500000, 26.500000) rotate(-180.000000) translate(-30.500000, -26.500000) "></path>
            <path d="M14,26 C15.8624549,27.3333333 17.5291216,27.3333333 19,26" id="Path-3" stroke="#EC912D" stroke-width="2" fill="#D8D8D8" stroke-linecap="round" transform="translate(16.500000, 26.500000) rotate(-180.000000) translate(-16.500000, -26.500000) "></path>
        </g>
    </g>
</svg>